<svg xmlns="http://www.w3.org/2000/svg" width="17" height="17" fill="none" class="icon" viewBox="0 0 36 36">
  <path fill="#0077B5" d="M0 18a18 18 0 1 1 36 0 18 18 0 0 1-36 0Z"/>
  <path fill="#fff" fill-rule="evenodd" d="M12.99 11.12c0 1.17-.89 2.12-2.3 2.12h-.03c-1.37 0-2.26-.95-2.26-2.12 0-1.2.91-2.12 2.3-2.12 1.4 0 2.26.92 2.29 2.12Zm-.27 3.79v12.25H8.64V14.91h4.08Zm14.71 12.25v-7.02c0-3.77-2.01-5.52-4.7-5.52a4.05 4.05 0 0 0-3.67 2.02v-1.73h-4.08c.05 1.15 0 12.25 0 12.25h4.08v-6.84c0-.37.03-.73.13-1 .3-.73.97-1.48 2.1-1.48 1.47 0 2.06 1.12 2.06 2.77v6.55h4.08Z" clip-rule="evenodd"/>
</svg>