<svg width="17" height="17" viewBox="0 0 17 17" fill="none" xmlns="http://www.w3.org/2000/svg" id="reviewManagement_review_copylinkIcon" class="icon"><path d="M7.06982 9.21653C7.35613 9.59928 7.7214 9.91598 8.14086 10.1452C8.56032 10.3743 9.02416 10.5106 9.50092 10.5448C9.97769 10.5789 10.4562 10.5101 10.9041 10.3431C11.3519 10.176 11.7586 9.91458 12.0965 9.57653L14.0965 7.57653C14.7037 6.94786 15.0397 6.10585 15.0321 5.23186C15.0245 4.35787 14.6739 3.52183 14.0559 2.9038C13.4379 2.28577 12.6018 1.93521 11.7278 1.92762C10.8538 1.92002 10.0118 2.256 9.38316 2.8632L8.23649 4.0032" stroke="#637487" stroke-width="1.5" stroke-linecap="round" stroke-linejoin="round"></path><path d="M9.73679 7.88313C9.45048 7.50037 9.08521 7.18367 8.66575 6.9545C8.24629 6.72533 7.78245 6.58905 7.30569 6.5549C6.82892 6.52076 6.3504 6.58955 5.90256 6.7566C5.45472 6.92366 5.04804 7.18508 4.71012 7.52313L2.71012 9.52313C2.10293 10.1518 1.76695 10.9938 1.77454 11.8678C1.78213 12.7418 2.1327 13.5778 2.75072 14.1959C3.36875 14.8139 4.20479 15.1644 5.07878 15.172C5.95277 15.1796 6.79478 14.8437 7.42345 14.2365L8.56345 13.0965" stroke="#637487" stroke-width="1.5" stroke-linecap="round" stroke-linejoin="round"></path></svg>