<svg xmlns="http://www.w3.org/2000/svg" width="17" height="17" fill="none" class="icon" viewBox="0 0 36 36">
  <path fill="#55ACEE" d="M0 18a18 18 0 1 1 36 0 18 18 0 0 1-36 0Z"/>
  <path fill="#fff" d="m17.46 14.63.04.62-.63-.07c-2.3-.3-4.3-1.29-6-2.95l-.82-.83-.22.61a3.67 3.67 0 0 0 .78 3.76c.5.54.4.61-.48.3-.3-.1-.56-.18-.59-.14-.09.09.22 1.24.45 1.7.33.64 1 1.26 1.73 1.63l.62.29-.73.01c-.7 0-.73.02-.66.28.25.83 1.25 1.7 2.36 2.09l.78.26-.68.41c-1.01.58-2.2.92-3.38.94-.56.01-1.03.06-1.03.1 0 .13 1.54.84 2.43 1.12 2.68.83 5.87.47 8.26-.94 1.7-1 3.4-3 4.2-4.93.42-1.03.85-2.91.85-3.81 0-.59.04-.67.74-1.36.42-.41.8-.86.88-.98.13-.25.12-.25-.53-.03-1.07.38-1.22.33-.69-.24.4-.4.86-1.14.86-1.36 0-.04-.2.02-.4.14-.23.13-.74.32-1.11.43l-.68.22-.62-.42a5.13 5.13 0 0 0-1.07-.56 4.3 4.3 0 0 0-2.2.05 3.64 3.64 0 0 0-2.46 3.66Z"/>
</svg>